HIERARCHY
ROOT hip
{
  OFFSET 0 0 0
  CHANNELS 6 Xposition Yposition Zposition Zrotation Yrotation Xrotation
  JOINT abdomen
  {
    OFFSET 0 20.6881 -0.73152
    CHANNELS 3 Zrotation Xrotation Yrotation
    JOINT chest
    {
      OFFSET 0 11.7043 -0.48768
      CHANNELS 3 Zrotation Xrotation Yrotation
      JOINT neck
      {
        OFFSET 0 22.1894 -2.19456
        CHANNELS 3 Zrotation Xrotation Yrotation
        JOINT head
        {
          OFFSET -0.24384 7.07133 1.2192
          CHANNELS 3 Zrotation Xrotation Yrotation
          JOINT leftEye
          {
            OFFSET 4.14528 8.04674 8.04672
            CHANNELS 3 Zrotation Xrotation Yrotation
            End Site
            {
              OFFSET 1 0 0
            }
          }
          JOINT rightEye
          {
            OFFSET -3.6576 8.04674 8.04672
            CHANNELS 3 Zrotation Xrotation Yrotation
            End Site
            {
              OFFSET 1 0 0
            }
          }
        }
      }
      JOINT rCollar
      {
        OFFSET -2.68224 19.2634 -4.8768
        CHANNELS 3 Zrotation Xrotation Yrotation
        JOINT rShldr
        {
          OFFSET -8.77824 -1.95073 1.46304
          CHANNELS 3 Zrotation Xrotation Yrotation
          JOINT rForeArm
          {
            OFFSET -28.1742 -1.7115 0.48768
            CHANNELS 3 Zrotation Xrotation Yrotation
            JOINT rHand
            {
              OFFSET -22.5879 0.773209 7.07136
              CHANNELS 3 Zrotation Xrotation Yrotation
              JOINT rThumb1
              {
                OFFSET -1.2192 -0.487915 3.41376
                CHANNELS 3 Zrotation Xrotation Yrotation
                JOINT rThumb2
                {
                  OFFSET -3.37035 -0.52449 3.41376
                  CHANNELS 3 Zrotation Xrotation Yrotation
                  End Site
                  {
                    OFFSET -1.78271 -1.18214 1.43049
                  }
                }
              }
              JOINT rIndex1
              {
                OFFSET -7.75947 0.938293 5.60832
                CHANNELS 3 Zrotation Xrotation Yrotation
                JOINT rIndex2
                {
                  OFFSET -2.54057 -0.884171 1.56538
                  CHANNELS 3 Zrotation Xrotation Yrotation
                  End Site
                  {
                    OFFSET -1.62519 -0.234802 1.16502
                  }
                }
              }
              JOINT rMid1
              {
                OFFSET -8.24714 1.18213 3.41376
                CHANNELS 3 Zrotation Xrotation Yrotation
                JOINT rMid2
                {
                  OFFSET -3.10165 -0.590103 1.0647
                  CHANNELS 3 Zrotation Xrotation Yrotation
                  End Site
                  {
                    OFFSET -2.48547 -0.328903 0.83742
                  }
                }
              }
              JOINT rRing1
              {
                OFFSET -8.82822 0.546677 1.51678
                CHANNELS 3 Zrotation Xrotation Yrotation
                JOINT rRing2
                {
                  OFFSET -2.60934 -0.819778 -0.0198488
                  CHANNELS 3 Zrotation Xrotation Yrotation
                  End Site
                  {
                    OFFSET -2.33842 -0.294052 0.168128
                  }
                }
              }
              JOINT rPinky1
              {
                OFFSET -8.27202 -0.0477905 -0.4584
                CHANNELS 3 Zrotation Xrotation Yrotation
                JOINT rPinky2
                {
                  OFFSET -1.82734 -0.647385 -0.700984
                  CHANNELS 3 Zrotation Xrotation Yrotation
                  End Site
                  {
                    OFFSET -1.69225 -0.51767 -0.607171
                  }
                }
              }
            }
          }
        }
      }
      JOINT lCollar
      {
        OFFSET 2.68224 19.2634 -4.8768
        CHANNELS 3 Zrotation Xrotation Yrotation
        JOINT lShldr
        {
          OFFSET 8.77824 -1.95073 1.46304
          CHANNELS 3 Zrotation Xrotation Yrotation
          JOINT lForeArm
          {
            OFFSET 28.1742 -1.7115 0.48768
            CHANNELS 3 Zrotation Xrotation Yrotation
            JOINT lHand
            {
              OFFSET 22.5879 0.773209 7.07136
              CHANNELS 3 Zrotation Xrotation Yrotation
              JOINT lThumb1
              {
                OFFSET 1.2192 -0.487915 3.41376
                CHANNELS 3 Zrotation Xrotation Yrotation
                JOINT lThumb2
                {
                  OFFSET 3.37035 -0.52449 3.41376
                  CHANNELS 3 Zrotation Xrotation Yrotation
                  End Site
                  {
                    OFFSET 1.78271 -1.18214 1.43049
                  }
                }
              }
              JOINT lIndex1
              {
                OFFSET 7.75947 0.938293 5.60832
                CHANNELS 3 Zrotation Xrotation Yrotation
                JOINT lIndex2
                {
                  OFFSET 2.54057 -0.884171 1.56538
                  CHANNELS 3 Zrotation Xrotation Yrotation
                  End Site
                  {
                    OFFSET 1.62519 -0.234802 1.16502
                  }
                }
              }
              JOINT lMid1
              {
                OFFSET 8.24714 1.18213 3.41376
                CHANNELS 3 Zrotation Xrotation Yrotation
                JOINT lMid2
                {
                  OFFSET 3.10165 -0.590103 1.0647
                  CHANNELS 3 Zrotation Xrotation Yrotation
                  End Site
                  {
                    OFFSET 2.48547 -0.328903 0.83742
                  }
                }
              }
              JOINT lRing1
              {
                OFFSET 8.82822 0.546677 1.51678
                CHANNELS 3 Zrotation Xrotation Yrotation
                JOINT lRing2
                {
                  OFFSET 2.60934 -0.819778 -0.0198488
                  CHANNELS 3 Zrotation Xrotation Yrotation
                  End Site
                  {
                    OFFSET 2.33842 -0.294052 0.168128
                  }
                }
              }
              JOINT lPinky1
              {
                OFFSET 8.27202 -0.0477905 -0.4584
                CHANNELS 3 Zrotation Xrotation Yrotation
                JOINT lPinky2
                {
                  OFFSET 1.82734 -0.647385 -0.700984
                  CHANNELS 3 Zrotation Xrotation Yrotation
                  End Site
                  {
                    OFFSET 1.69225 -0.51767 -0.607171
                  }
                }
              }
            }
          }
        }
      }
    }
  }
  JOINT rButtock
  {
    OFFSET -8.77824 4.35084 1.2192
    CHANNELS 3 Zrotation Xrotation Yrotation
    JOINT rThigh
    {
      OFFSET 0 -1.70687 -2.19456
      CHANNELS 3 Zrotation Xrotation Yrotation
      JOINT rShin
      {
        OFFSET 0 -36.8199 0.73152
        CHANNELS 3 Zrotation Xrotation Yrotation
        JOINT rFoot
        {
          OFFSET 0.73152 -45.1104 -5.12064
          CHANNELS 3 Zrotation Xrotation Yrotation
          End Site
          {
            OFFSET -1.1221 -3.69964 12.103
          }
        }
      }
    }
  }
  JOINT lButtock
  {
    OFFSET 8.77824 4.35084 1.2192
    CHANNELS 3 Zrotation Xrotation Yrotation
    JOINT lThigh
    {
      OFFSET 0 -1.70687 -2.19456
      CHANNELS 3 Zrotation Xrotation Yrotation
      JOINT lShin
      {
        OFFSET 0 -36.8199 0.73152
        CHANNELS 3 Zrotation Xrotation Yrotation
        JOINT lFoot
        {
          OFFSET -0.73152 -45.1104 -5.12064
          CHANNELS 3 Zrotation Xrotation Yrotation
          End Site
          {
            OFFSET 1.1221 -3.69964 12.103
          }
        }
      }
    }
  }
}
MOTION
Frames:	4
Frame Time:	0.03333
-1.8947381526231766 -8.134310692548752 -3.2829142175614834 -4.640376567840576 -21.02063751220703 9.008703231811523 -1.876692771911621 11.92336654663086 11.63394832611084 0.7215502262115479 -9.148720741271973 3.1474449634552 -2.5930027961730957 13.372346878051758 -0.6674200296401978 5.4534149169921875 -27.459217071533203 0.7050155997276306 -0.062192898243665695 -0.14556927978992462 -0.024109862744808197 0.070114865899086 0.5303417444229126 0.299545019865036 -0.010538323782384396 -0.09875040501356125 -0.06311836838722229 52.4416618347168 47.43239212036133 17.538564682006836 -24.000394821166992 -18.909826278686523 49.53963088989258 -0.0939713716506958 7.385720729827881 1.161527395248413 0.013097812421619892 -0.12219062447547913 -0.0978374183177948 0.14339011907577515 0.22689348459243774 0.059341561049222946 -0.020302575081586838 0.21973375976085663 0.050368327647447586 7.558274269104004 5.179274082183838 0.206872820854187 0.0014229151420295238 0.2553708553314209 0.2523062229156494 2.8163743019104004 0.8965057134628296 0.061317358165979385 -0.18990956246852875 0.21041642129421234 -0.06179917976260185 10.357184410095215 0.6878715753555298 0.04819741100072861 -0.09854953736066818 0.25860100984573364 0.0424899160861969 2.1369550228118896 -0.8660900592803955 -0.39582911133766174 0.17013727128505707 0.10997721552848816 0.10165191441774368 -61.26466369628906 29.24741554260254 -20.88439178466797 11.268896102905273 -4.974972724914551 -20.067031860351562 0.7708115577697754 18.893320083618164 -3.043363094329834 -0.10263589024543762 0.089320607483387 -0.11941865086555481 0.056275539100170135 0.07563655078411102 0.15897522866725922 0.012441487982869148 -0.21645066142082214 0.017522301524877548 -7.949864387512207 5.532718658447266 -0.5069055557250977 -0.02629072219133377 0.22604189813137054 -0.04789651930332184 -2.777052402496338 0.8761536478996277 0.004180568270385265 0.1344510316848755 -0.268636018037796 -0.13472341001033783 -10.419214248657227 0.6630520820617676 -0.15184974670410156 0.03241219371557236 -0.02464437484741211 0.17824089527130127 -2.230388879776001 -0.5073060393333435 0.15486754477024078 -0.1637752205133438 -0.03622138872742653 0.06341596692800522 -13.368438720703125 -6.920387268066406 3.8350608348846436 -2.0406885147094727 68.40227508544922 3.514493942260742 0.9431569576263428 6.795056343078613 -9.680909156799316 0.00481050368398428 0.11410118639469147 -0.04824713245034218 38.26068115234375 -58.58815002441406 42.99753189086914 7.376558780670166 83.62089538574219 -8.15141487121582 10.565305709838867 -14.209444999694824 25.922931671142578
-1.935352012515068 -8.164854347705841 -3.5459053702652454 -2.8203303813934326 -20.734350204467773 7.445188522338867 -4.241804599761963 13.489452362060547 10.764511108398438 0.9048256278038025 -9.401217460632324 2.900258779525757 -2.5055088996887207 13.543994903564453 -0.4444009065628052 5.59588623046875 -27.437175750732422 0.6020262837409973 0.0033779919613152742 -0.11686605215072632 -0.02849714271724224 0.0628550723195076 0.33688661456108093 0.3639129102230072 0.06552474200725555 -0.10668258368968964 0.0720563530921936 53.22489929199219 47.28257751464844 16.60288429260254 -23.970788955688477 -19.046323776245117 49.7176513671875 -0.12160076946020126 7.051003456115723 1.0467023849487305 -0.043269746005535126 -0.12849724292755127 -0.14482752978801727 0.21500228345394135 0.24064838886260986 0.09729800373315811 0.040874093770980835 0.2105606198310852 -0.03836863115429878 7.5124640464782715 5.192783832550049 0.18223372101783752 -0.041814327239990234 0.35943448543548584 0.08747675269842148 2.828155040740967 0.8632262349128723 0.01881600357592106 -0.3262091279029846 0.13669566810131073 -0.11197303235530853 10.228044509887695 0.7123172879219055 0.13106627762317657 -0.04407305642962456 0.25726625323295593 0.18424631655216217 2.234692096710205 -0.7888585925102234 -0.3914318084716797 0.0683889240026474 0.016260243952274323 0.1381482183933258 -60.71440887451172 29.526195526123047 -20.497665405273438 11.526002883911133 -5.489994525909424 -20.375404357910156 0.8172181844711304 18.125362396240234 -2.767808198928833 -0.03693241626024246 0.15448319911956787 0.06314528733491898 0.02894934080541134 0.028253603726625443 0.09546845406293869 -0.041223473846912384 -0.2502875328063965 -0.009476171806454659 -7.999866485595703 5.370304107666016 -0.5291541218757629 -0.10927821695804596 0.23872795701026917 -0.2118469625711441 -2.808053731918335 0.9257824420928955 0.03785696253180504 0.1970132738351822 -0.40172794461250305 -0.14314936101436615 -10.349997520446777 0.6379857659339905 -0.21152712404727936 0.03144088387489319 -0.223378524184227 0.1491394340991974 -2.2074995040893555 -0.40092575550079346 0.1973918080329895 -0.2010512799024582 -0.05609053000807762 0.1470993608236313 -14.432458877563477 -13.617097854614258 1.7103455066680908 -5.694725036621094 79.11595153808594 7.050599575042725 0.37756216526031494 5.587032794952393 -4.5034379959106445 0.10300683230161667 0.22698286175727844 -0.11889126896858215 31.288148880004883 -57.221839904785156 37.81440734863281 5.41178035736084 81.91239929199219 -6.1881537437438965 10.197543144226074 -14.422274589538574 25.42450714111328
-1.969856582581997 -8.287468552589417 -3.8381951861083508 0.7637739181518555 -19.0764102935791 4.893383979797363 -9.294086456298828 15.811755180358887 10.6715087890625 1.9895439147949219 -9.701436042785645 2.7803711891174316 -2.559415817260742 13.359975814819336 -0.3943624794483185 5.996755599975586 -27.362194061279297 0.5046893358230591 0.10854817181825638 -0.33704835176467896 -0.015176767483353615 -0.049019236117601395 0.08308226615190506 0.37706631422042847 -0.0384051539003849 -0.06383569538593292 0.04400718957185745 54.20507049560547 46.421852111816406 16.292259216308594 -23.830547332763672 -18.441741943359375 48.54265213012695 -0.1272585391998291 6.332387447357178 0.8888264298439026 -0.13226540386676788 -0.016864662989974022 -0.2906125783920288 0.21639664471149445 0.1369047462940216 0.09349025785923004 0.00216078944504261 0.23298829793930054 -0.1204204186797142 7.429901599884033 5.005908012390137 0.3669932186603546 -0.06985758244991302 0.3025566637516022 0.09587342292070389 3.032843828201294 0.8639113306999207 -0.051206644624471664 -0.2672169506549835 0.06509984284639359 -0.03264409303665161 10.13803482055664 0.6951495409011841 0.11586781591176987 0.04437381029129028 0.2694076895713806 0.01666976325213909 2.4648525714874268 -0.934074342250824 -0.4297821819782257 0.06196431815624237 0.008610027842223644 0.10396914929151535 -59.87704086303711 29.503864288330078 -20.685400009155273 11.886927604675293 -5.870307922363281 -21.547903060913086 0.7029865980148315 17.7579402923584 -2.58832049369812 -0.04099792242050171 0.000180517221451737 0.05665088817477226 0.19854623079299927 0.07459453493356705 0.15978918969631195 -0.053733352571725845 -0.3020085096359253 0.08916760981082916 -7.906068325042725 5.435859203338623 -0.7628886103630066 -0.14861857891082764 0.41237160563468933 0.0014070554170757532 -2.8798835277557373 0.9204332828521729 0.0866352990269661 0.20685337483882904 -0.18032848834991455 -0.2862657904624939 -10.4107084274292 0.8138696551322937 -0.055832911282777786 0.13828644156455994 -0.2006613314151764 0.06137385591864586 -2.226135730743408 -0.5788847804069519 0.22549636662006378 0.025417517870664597 -0.21560192108154297 -0.028256110846996307 -15.839752197265625 -22.89061737060547 -0.2946186363697052 -152.07777404785156 86.94244384765625 153.18907165527344 -0.04981265962123871 4.235653400421143 0.961582601070404 -0.017112215980887413 0.029400106519460678 -0.14482316374778748 21.646329879760742 -54.17377471923828 30.810373306274414 5.196527004241943 80.76483154296875 -5.858145236968994 12.192204475402832 -15.709540367126465 28.71806526184082
-1.9946355372667313 -8.346058428287506 -4.167722072452307 3.0636653900146484 -19.245071411132812 2.625328302383423 -12.842100143432617 17.999252319335938 10.908796310424805 2.3936123847961426 -10.109640121459961 2.409632682800293 -2.583712577819824 12.919596672058105 -0.43775081634521484 6.492496490478516 -27.55949592590332 1.0239094495773315 0.19591666758060455 -0.27024129033088684 -0.10147389024496078 0.05603638291358948 0.02799859084188938 0.3524422347545624 -0.12647616863250732 -0.028041673824191093 0.003199528669938445 53.9640998840332 47.365875244140625 17.33518409729004 -23.582502365112305 -18.071617126464844 48.080650329589844 -0.09789138287305832 6.477412700653076 0.6794626116752625 -0.12319041788578033 -0.0350797213613987 -0.36972129344940186 0.12342279404401779 0.12342295050621033 0.07115437835454941 0.04711056873202324 0.12422696501016617 -0.23354163765907288 7.565365791320801 5.201251983642578 0.4309518337249756 -0.11535686999559402 0.2834080159664154 0.09393931925296783 2.965848684310913 0.9178410768508911 0.013389702886343002 -0.20952923595905304 0.03156852722167969 0.002169115701690316 10.065512657165527 0.8019761443138123 0.0466943234205246 -0.01734728366136551 0.2616093158721924 -0.1671649068593979 2.4648947715759277 -0.9293568730354309 -0.6026113629341125 0.1685328483581543 0.02306450344622135 0.060526445508003235 -59.56932830810547 30.18255043029785 -19.833786010742188 12.917876243591309 -6.551275730133057 -23.62943458557129 0.5296344757080078 16.752277374267578 -2.6100993156433105 0.006722340825945139 -0.08058761805295944 0.049432385712862015 0.2025025337934494 0.13166220486164093 0.09953895211219788 -0.2880817949771881 -0.12630710005760193 0.030050810426473618 -8.061924934387207 5.434492111206055 -0.889983594417572 -0.3370265066623688 0.2812732756137848 0.06582611054182053 -2.8904476165771484 0.9466248154640198 0.09288161247968674 0.37065058946609497 -0.1229059100151062 -0.13287273049354553 -10.400181770324707 0.8705455660820007 0.0050504617393016815 0.20225371420383453 0.1467898041009903 -0.018742108717560768 -2.262563467025757 -0.69687819480896 0.16138577461242676 -0.012651990167796612 -0.19727186858654022 -0.029635045677423477 -15.056777000427246 -30.704113006591797 -3.338393449783325 -172.7311248779297 77.8122787475586 173.62281799316406 -1.2816277742385864 0.07494623214006424 -1.2870569229125977 -0.09204474836587906 0.07335861027240753 -0.06781550496816635 16.727069854736328 -52.12189483642578 28.674829483032227 4.371172904968262 80.92268371582031 -5.212976932525635 13.60793685913086 -16.275663375854492 30.80230140686035
